<svg xmlns="http://www.w3.org/2000/svg" width="64" height="64" id="frock"><g fill="#333433"><path d="m23.901 22.696.535-1.372s0 .613-.075 1.372c-.075.765 1.13 2.234 1.672 3.141.277.469 1.076 2.846.997 4.204.023.013.051.017.076.036.214.144 5.552 3.659 13.054-.173.011-.008.017-.002.027-.008.02-.915.166-1.75.23-2.177.176-1.139.837-2.588 1.143-3.116.063-.115.328-.442.355-.861.031-.426-.133-.935-.143-1.066-.07-1.077.244.555.244.555l.607.23c1.904.303 3.805-.688 3.73-1.067-.078-.38-1.523-6.774-1.826-7.987-.305-1.222-2.131-1.68-3.119-1.68-.992 0-2.59-.228-2.59-.228l-1.373-1.141s-.073 1.067-.377 1.673c-.305.609-1.375 1.293-2.815 1.596-1.446.309-3.518-.547-4.051-1.005-.533-.458-1.656-2.646-1.656-2.646s-.761.993-1.141 1.372c-.384.379-.99.304-1.755.379-.761.074-1.669.383-2.585.914-.915.532-1.445 1.064-1.677 1.75-.224.687-1.444 4.564-1.748 6.696 1.066.915 4.261.609 4.261.609zm9.515-2.78c.293 0 .582.289.582.581 0 .295-.289.582-.582.582s-.581-.287-.581-.582c0-.292.287-.581.581-.581zm0 5.372c.293 0 .582.285.582.58 0 .294-.289.58-.582.58s-.581-.286-.581-.58c0-.295.287-.58.581-.58z"></path><path d="M44.073 39.498c-.847-5.135-3.226-7.923-3.755-8.489-2.702 1.308-5.125 1.748-7.159 1.748-3.695 0-6.084-1.432-6.559-1.742-1.824 1.852-4.187 9.508-4.187 9.508-1.426 5.244-6.221 9.563-6.221 9.563 2.601 3.029 6.709 2.188 6.709 2.188 2.813 3.133 7.063 1.801 7.063 1.801 1.951 1.501 7.537.174 7.537.174 2.571 1.514 5.538-.25 5.985-.945 3.388 1.762 6.32-3.027 6.32-3.027-4.14-1.065-5.733-10.779-5.733-10.779z"></path></g></svg>