<svg xmlns="http://www.w3.org/2000/svg" width="64" height="64" id="mens"><g fill="#333433"><path d="M7.561 50.537a.526.526 0 0 0 .398.326l4.963.9a.526.526 0 0 0 .58-.3c.029-.063.682-1.479 1.152-2.845l-6.531-1.133c-.39.995-.831 2.385-.562 3.052zM55.376 47.293l-6.353 1.52c.482 1.314 1.166 2.613 1.197 2.677a.534.534 0 0 0 .566.276l4.965-.901a.535.535 0 0 0 .434-.488c.044-.625-.487-2.197-.809-3.084zM29.469 19.033l1.736.583c.025-1.236.047-2.131.055-2.566 0-.001-.006 0-.01-.002l-2.168-.88a.52.52 0 0 1-.145-.084l-3.479-2.931-.611 1.482c.01.012.023.018.031.031.675 1.069 2.814 3.94 4.591 4.367zM34.495 16.178l-2.163.731c-.008.266-.027 1.174-.059 2.545l2.375-.724c1-.504 3.903-2.258 4.36-3.925a.605.605 0 0 1 .097-.185l-.933-1.554-3.502 3.012a.493.493 0 0 1-.175.1zM37.327 12.398l-5.36-1.063-.431.01-5.307 1.062 3.33 2.805 1.992.809.088-.002 2.416-.815z"></path><path d="m31.178 20.73-2.004-.674c-2.264-.544-4.566-3.864-5.088-4.652l-7.439 2.598a.539.539 0 0 0-.338.36L8.504 46.473l6.484 1.127 4.492-13.935.166 17.771c.002.252.18.469.426.519l11.271 2.397c-.669-5.664-.344-25.152-.165-33.622zM28.19 31.092h-5.148a.53.53 0 1 1 0-1.062h5.148a.53.53 0 1 1 0 1.062zM47.298 18.362a.54.54 0 0 0-.327-.357l-7.037-2.618c-.908 2.333-4.726 4.246-4.896 4.33l-2.788.855c-.178 8.392-.514 28.36.162 33.749l11.124-2.367a.531.531 0 0 0 .422-.518l.166-17.774 4.56 14.138 6.368-1.523-7.754-27.915zm-7.389 12.73h-5.15a.529.529 0 0 1-.53-.53.53.53 0 0 1 .53-.532h5.15a.531.531 0 1 1 0 1.062z"></path></g></svg>