<svg xmlns="http://www.w3.org/2000/svg" width="64" height="64" viewBox="0 0 64 64" id="track"><path fill="#333433" d="M42.291 30.185l-1.598-18.018.047-1.779a.536.536 0 0 0-.24-.46.539.539 0 0 0-.52-.037c-.025.011-2.533 1.161-7.995 1.282h-.293c-5.471-.121-7.947-1.27-7.973-1.281a.536.536 0 0 0-.516.032.536.536 0 0 0-.246.454l.014 1.729-1.595 18.083-1.98 24.533a.534.534 0 0 0 .412.563c.098.021 2.662.59 6.27.46a.532.532 0 0 0 .512-.501c.018-.256 1.609-25.554 5.244-32.273 3.633 6.708 5.225 32.017 5.238 32.273a.536.536 0 0 0 .516.501c.357.013.705.019 1.041.019 3.055 0 5.143-.462 5.227-.479a.53.53 0 0 0 .414-.563l-1.979-24.538z"></path></svg>