<svg xmlns="http://www.w3.org/2000/svg" width="64" height="64" viewBox="0 0 64 64" id="t"><g fill="#333433"><path d="M32.848 13.802h.291c3.784.091 5.185-4.083 5.242-4.261l.055-.18c-2.09 1.416-4.643 1.499-5.146 1.499l-.151-.003-.429.003c-.501 0-3.057-.083-5.149-1.502l.059.188c.057.173 1.441 4.337 5.228 4.256zM17.046 14.04a19.256 19.256 0 00-1.859 2.125l-5.612 8.468a.537.537 0 00.102.703l7.273 6.129a.53.53 0 00.731-.043l.487-.517c.349-9.613-1.017-16.554-1.033-16.626l-.089-.239z"></path><path d="M32.809 17.471h.381c7.185 0 8.761-6.462 8.774-6.526l.076-.52-2.505-1.027-.137.46c-.02.063-1.719 5.074-6.274 5.008h-.263l-.148.002c-4.448 0-6.09-4.948-6.106-4.997l-.15-.471-2.502 1.028.088.553c.053.23 1.606 6.49 8.766 6.49z"></path><path d="M47.82 14.063l.297-.781c-.873-.72-1.414-.941-1.44-.951l-3.622-1.488-.045.302c-.023.113-1.798 7.394-9.82 7.394h-.381c-8.02 0-9.795-7.28-9.812-7.352l-.055-.341-3.601 1.479c-.037.014-.577.233-1.448.949l.264.721c.033.141 1.316 6.622 1.11 15.742l.039-.038c.109 2.986.362 11.344.362 25.726 0 .271.203.496.471.526.056.01 5.823.693 11.568.693.388 0 .775-.002 1.154-.009h.268c.387.007.775.009 1.161.009 5.749 0 11.515-.685 11.571-.693a.527.527 0 0 0 .468-.526c0-12.981.206-21.039.329-24.685-.326-9.646 1.147-16.608 1.162-16.677z"></path><path d="M56.424 24.633l-5.632-8.496a19.304 19.304 0 0 0-1.829-2.093l-.126.324c.007 0-1.442 6.878-1.112 16.424l.594.63a.53.53 0 0 0 .73.043l7.274-6.129a.533.533 0 0 0 .101-.703z"></path></g></svg>